<?xml version="1.0" standalone="no"?>
<!DOCTYPE svg PUBLIC "-//W3C//DTD SVG 20010904//EN"
 "http://www.w3.org/TR/2001/REC-SVG-20010904/DTD/svg10.dtd">
<svg version="1.0" xmlns="http://www.w3.org/2000/svg"
 width="300.000000pt" height="312.000000pt" viewBox="0 0 300.000000 312.000000"
 preserveAspectRatio="xMidYMid meet">
<metadata>
Created by potrace 1.15, written by Peter Selinger 2001-2017
</metadata>
<g transform="translate(0.000000,312.000000) scale(0.100000,-0.100000)"
fill="#000000" stroke="none">
<path d="M1476 2978 c-40 -66 -111 -187 -173 -298 -150 -270 -188 -330 -206
-330 -10 0 -27 -4 -37 -10 -13 -7 -19 -6 -23 4 -8 19 -556 19 -564 0 -3 -8
-11 -14 -19 -14 -8 0 -14 -4 -14 -10 0 -5 24 -10 53 -10 l54 0 -1 -49 c-1 -52
-11 -75 -22 -48 -3 9 -12 13 -20 10 -16 -6 -19 13 -3 22 6 5 4 12 -8 22 -17
14 -17 14 5 10 12 -3 22 -1 22 4 0 5 -16 9 -35 9 -35 0 -35 0 -35 -45 0 -45
-12 -60 -24 -29 -3 9 -6 42 -6 75 l0 59 -75 0 c-58 0 -75 -3 -75 -14 0 -11
120 -234 170 -316 5 -8 30 -53 56 -100 26 -47 76 -133 110 -191 34 -59 65
-115 68 -126 5 -14 -21 -68 -87 -184 -216 -379 -287 -505 -287 -511 0 -4 179
-4 398 -1 l397 5 30 -48 c17 -26 33 -55 38 -63 4 -9 16 -29 27 -46 11 -16 29
-48 41 -70 12 -22 32 -54 45 -71 13 -17 24 -33 24 -37 0 -3 45 -78 100 -167
55 -89 100 -166 100 -171 0 -30 29 11 118 168 55 98 110 194 121 213 27 48 99
175 129 230 46 84 5 77 467 85 228 4 415 9 415 11 0 2 -51 89 -112 193 -62
105 -135 229 -163 277 -27 47 -57 98 -65 113 -9 14 -32 56 -53 93 l-38 67 64
123 c63 119 88 188 70 188 -5 0 -31 -42 -57 -92 -61 -116 -76 -139 -76 -116 0
9 -13 25 -30 35 -36 21 -39 36 -5 27 22 -5 26 -2 31 25 4 17 11 28 16 25 5 -4
7 -22 3 -40 -8 -47 0 -42 24 12 20 44 20 71 0 59 -10 -7 -12 25 -3 49 8 21 24
10 24 -15 0 -26 21 -20 31 9 7 19 3 26 -26 43 -19 12 -35 25 -35 30 0 12 11
11 40 -6 32 -18 50 -19 50 -2 0 7 -16 21 -35 30 -35 17 -47 37 -22 37 7 0 22
-7 33 -15 10 -8 25 -15 32 -15 20 0 14 27 -8 33 -25 6 -26 23 -3 31 11 5 22 0
31 -11 11 -16 14 -16 22 -3 16 25 11 36 -25 53 -41 19 -48 42 -10 33 26 -7 47
17 38 42 -3 6 3 12 12 12 9 0 19 -9 22 -21 3 -12 11 -18 19 -15 23 9 17 -9
-36 -108 -53 -100 -59 -119 -34 -114 13 3 194 338 194 361 0 4 -166 5 -370 2
-365 -7 -370 -7 -399 14 -16 12 -71 88 -122 169 -143 228 -280 442 -285 442
-2 0 -10 -10 -18 -22z m424 -617 c0 -5 -7 -11 -15 -15 -8 -3 -15 -10 -15 -17
0 -7 63 -9 222 -6 122 3 228 2 235 0 7 -3 10 -10 6 -17 -7 -11 -8 -16 -11 -70
-2 -28 -3 -29 -22 -11 -15 13 -17 22 -10 36 13 23 13 39 0 39 -5 0 -10 -6 -10
-14 0 -7 -7 -20 -17 -27 -15 -13 -16 -11 -10 13 4 15 3 30 -4 33 -16 10 -21 0
-23 -47 -1 -46 -17 -55 -28 -16 -3 13 -7 19 -7 13 -1 -5 -8 -2 -15 8 -14 19
-33 7 -21 -13 3 -5 1 -10 -4 -10 -6 0 -11 12 -11 26 0 23 3 25 24 20 14 -3 28
-2 31 4 6 10 -23 15 -55 10 -22 -3 -23 -6 -22 -45 1 -19 -3 -37 -8 -40 -6 -4
-10 13 -10 39 0 25 -4 46 -10 46 -5 0 -10 -18 -10 -40 0 -36 -2 -40 -25 -40
-25 0 -34 14 -16 24 5 3 11 17 14 32 3 18 1 22 -6 15 -6 -6 -20 -11 -31 -11
-19 0 -19 -1 -1 -13 12 -9 14 -16 7 -21 -12 -7 -36 30 -27 44 3 5 1 11 -5 15
-13 8 -26 -26 -29 -73 -1 -10 -5 -10 -20 0 -13 8 -17 16 -11 24 13 14 2 24
-18 17 -10 -4 -13 -2 -8 5 4 7 17 12 29 13 21 0 21 1 2 8 -35 14 -54 2 -57
-38 -4 -44 -22 -44 -23 1 0 17 -6 33 -12 35 -9 3 -13 -8 -13 -36 0 -44 -5 -48
-33 -27 -12 9 -14 16 -8 21 6 3 11 11 11 18 0 8 -3 8 -12 -1 -16 -16 -31 -15
-26 0 3 7 15 15 29 19 20 6 18 7 -13 8 -65 2 -54 21 11 21 52 0 61 3 61 18 0
10 3 22 7 25 10 10 43 8 43 -2z m-1058 -93 c-5 -51 -20 -73 -28 -40 -5 17 -11
21 -30 16 -18 -5 -24 -2 -24 9 0 9 10 17 23 19 12 2 20 8 17 13 -5 9 -50 9
-59 -1 -3 -2 -5 -19 -5 -37 -1 -28 -4 -32 -26 -29 -30 5 -40 13 -22 19 6 3 12
9 12 15 0 6 -7 8 -15 4 -9 -3 -15 0 -15 9 0 7 10 16 23 18 13 3 7 5 -16 6 -36
1 -38 -1 -37 -26 1 -16 1 -37 1 -48 -2 -19 -2 -19 -15 -2 -8 10 -20 15 -29 11
-18 -7 -29 9 -21 30 4 11 13 15 27 10 17 -5 19 -3 13 20 l-6 26 118 0 118 0
-4 -42z m609 -129 c27 -19 29 -25 29 -90 0 -42 4 -69 11 -69 6 0 9 27 8 71 -2
65 0 73 22 91 20 15 36 18 94 14 39 -3 91 -5 116 -6 l47 0 61 -86 c57 -79 61
-89 61 -140 l0 -54 -55 -27 c-30 -15 -55 -31 -55 -35 0 -12 4 -10 51 17 81 46
122 26 173 -85 19 -42 42 -82 51 -90 14 -12 14 -15 -1 -37 -8 -14 -27 -55 -41
-91 -28 -77 -43 -97 -83 -111 -22 -7 -32 -6 -41 5 -9 11 -7 14 15 14 14 0 26
5 26 11 0 6 -6 9 -12 6 -7 -2 -35 7 -61 21 -41 22 -50 24 -58 11 -13 -21 -9
-26 51 -63 l55 -33 -2 -59 -2 -59 -78 -76 -78 -75 -90 2 c-49 1 -93 2 -96 3
-8 1 -18 39 -28 106 l-8 50 -1 -50 c-1 -27 2 -57 7 -65 12 -18 5 -31 -14 -23
-11 4 -16 24 -17 72 -1 57 -2 60 -5 16 -5 -71 -11 -95 -27 -95 -10 0 -13 17
-10 73 2 69 2 69 -5 17 -4 -30 -13 -67 -19 -82 -11 -26 -16 -28 -70 -28 -33 0
-79 -3 -103 -6 l-45 -6 -68 93 c-38 52 -71 101 -73 111 -3 10 18 39 59 79 65
64 50 67 -18 4 -20 -19 -39 -34 -41 -32 -9 10 12 37 53 67 25 18 43 34 40 37
-3 3 -24 -9 -48 -26 -78 -57 -106 -41 -177 104 l-49 100 46 95 c37 74 54 98
81 113 34 18 36 18 90 -2 30 -11 57 -18 60 -16 6 7 4 8 -54 31 -36 14 -51 26
-53 42 -4 27 5 28 32 3 21 -19 86 -44 93 -37 3 2 -15 13 -39 25 -50 23 -88 54
-88 72 0 6 16 31 35 55 19 23 44 63 54 88 l20 45 68 4 c167 8 174 8 204 -14z
m-831 -88 c0 -5 -6 -14 -14 -20 -18 -15 -9 -62 11 -54 11 4 14 1 11 -8 -8 -25
-37 -22 -48 5 -8 23 -30 37 -30 20 0 -13 42 -74 51 -74 5 0 21 7 35 16 13 9
28 14 32 10 4 -4 0 -11 -8 -16 -38 -22 -53 -38 -46 -49 6 -9 12 -9 24 2 36 30
50 28 50 -8 0 -19 -6 -39 -14 -46 -14 -12 -19 -39 -8 -39 4 0 22 10 41 21 35
22 61 17 30 -5 -21 -16 -22 -36 -2 -36 20 0 19 -19 -1 -27 -10 -4 -20 0 -26
10 -16 30 -29 18 -13 -13 9 -16 12 -30 7 -30 -10 0 -62 71 -62 83 0 4 -27 51
-59 105 -69 114 -73 124 -45 126 11 2 31 10 44 19 27 19 40 21 40 8z m240
-420 c0 -6 -13 -18 -30 -28 -42 -25 -40 -47 5 -40 28 5 35 2 40 -14 12 -35
-26 -57 -39 -23 -4 9 -9 14 -12 11 -3 -3 5 -20 18 -39 12 -18 24 -34 24 -36 1
-2 17 6 35 17 37 23 49 26 49 13 0 -5 -16 -16 -35 -25 -19 -9 -35 -23 -35 -32
0 -18 8 -18 40 0 35 20 57 20 40 0 -11 -13 -10 -18 5 -29 19 -14 13 -36 -10
-36 -21 0 -27 -17 -15 -40 14 -27 22 -25 42 10 19 34 30 37 52 14 24 -23 19
-35 -9 -22 -34 15 -45 1 -17 -22 14 -12 18 -21 12 -25 -6 -4 -17 -2 -25 5 -19
15 -29 -4 -15 -30 13 -24 28 -25 58 -4 12 8 28 14 34 12 6 -2 -5 -14 -25 -27
-41 -25 -43 -29 -24 -55 13 -17 14 -18 20 -2 4 10 11 15 17 11 5 -3 18 -1 29
4 16 9 20 7 23 -14 4 -19 1 -25 -13 -25 -11 0 -19 -4 -19 -10 0 -5 5 -10 10
-10 6 0 10 -4 10 -10 0 -16 -27 -11 -34 6 -4 9 -9 14 -12 11 -3 -3 -1 -15 6
-26 6 -12 7 -21 1 -21 -8 0 -125 187 -164 260 -4 8 -13 24 -20 35 -7 11 -31
55 -55 97 -24 43 -47 80 -53 83 -15 10 -10 25 9 25 9 0 28 9 42 20 28 22 40
25 40 11z m926 -786 c4 -8 12 -15 20 -15 16 0 16 -2 8 -24 -8 -21 -24 -21 -24
0 0 26 -25 9 -28 -19 -3 -28 -17 -36 -25 -14 -2 6 -8 9 -12 5 -10 -10 13 -38
31 -38 20 0 17 -13 -14 -72 -16 -29 -48 -90 -71 -136 -24 -45 -47 -79 -52 -76
-5 3 -7 9 -5 13 3 4 -11 15 -30 26 -35 19 -48 43 -16 30 31 -12 36 -10 40 13
2 12 8 22 14 22 6 0 8 -13 6 -30 -6 -37 5 -39 21 -4 12 28 1 54 -24 54 -7 0
-15 6 -18 14 -9 23 25 24 47 2 15 -15 21 -17 24 -6 3 7 -4 20 -14 28 -18 13
-17 14 9 10 35 -7 37 19 2 28 -25 6 -56 34 -37 34 5 0 26 -7 46 -15 32 -14 36
-14 36 0 0 8 -6 15 -12 15 -18 1 -53 28 -46 36 4 3 20 -2 37 -10 35 -19 41
-19 41 -6 0 5 -13 16 -30 25 -37 19 -37 25 0 50 16 11 34 32 39 48 11 30 28
36 37 12z"/>
<path d="M1407 1899 c-50 -12 -99 -46 -142 -100 -43 -53 -55 -94 -55 -179 1
-189 177 -320 359 -266 152 45 237 220 180 371 -53 141 -189 210 -342 174z
m253 -66 c0 -4 -9 -26 -20 -49 -16 -31 -28 -43 -50 -48 l-30 -5 0 -106 c0
-118 7 -126 62 -80 35 29 48 32 48 8 0 -40 -66 -108 -127 -132 -112 -45 -217
21 -242 152 -16 85 44 151 65 71 15 -57 29 -45 32 29 l3 67 -46 0 c-37 0 -45
3 -45 18 0 34 38 57 88 55 171 -8 188 -7 212 10 25 17 50 22 50 10z"/>
</g>
</svg>
